<svg xmlns="http://www.w3.org/2000/svg" viewBox="0 0 1600 1000" role="img" aria-label="OikosEDU default student background">
  <defs>
    <linearGradient id="navy" x1="0" y1="0" x2="1" y2="1">
      <stop offset="0" stop-color="#184c7c" />
      <stop offset="1" stop-color="#032c55" />
    </linearGradient>
    <linearGradient id="orange" x1="0" y1="0" x2="1" y2="1">
      <stop offset="0" stop-color="#ffb23f" />
      <stop offset="1" stop-color="#ff6b00" />
    </linearGradient>
    <linearGradient id="ice" x1="0" y1="0" x2="1" y2="1">
      <stop offset="0" stop-color="#eef5fb" />
      <stop offset="1" stop-color="#cdddeb" />
    </linearGradient>
    <filter id="softShadow" x="-20%" y="-20%" width="140%" height="140%">
      <feDropShadow dx="0" dy="18" stdDeviation="28" flood-color="#0b2f55" flood-opacity="0.12" />
    </filter>
  </defs>

  <rect width="1600" height="1000" fill="#fffdf9" />
  <rect width="1600" height="1000" fill="#fff7ec" opacity="0.26" />

  <path d="M0 116h117c41 0 74 33 74 74v0c0 20-8 38-22 52L0 411Z" fill="url(#orange)" />
  <path d="M0 411 214 197c25-25 66-25 91 0v0c25 25 25 66 0 91L69 524c-38 38-69 24-69-30Z" fill="url(#ice)" />
  <path d="M0 0h536L374 162c-24 24-56 38-90 38H0Z" fill="url(#navy)" />
  <path d="M305 0 117 200" fill="none" stroke="#ffffff" stroke-width="2" />

  <circle cx="1595" cy="-16" r="205" fill="url(#ice)" opacity="0.8" />
  <path d="M1600 346v654h-441c-59 0-96-64-67-116l205-367c59-106 171-171 292-171Z" fill="url(#ice)" opacity="0.62" />
  <path d="M1600 606h-234c-29 0-57 12-77 33L1086 852" fill="none" stroke="#ff8a00" stroke-width="2" />
  <path d="M1600 821v179h-373l123-126c30-31 71-53 115-53Z" fill="url(#navy)" />
  <path d="M1600 826h-113c-44 0-87 18-118 49L1245 1000h-190l79-89c26-29 63-46 102-46h73c31 0 61-13 83-35l13-13c28-28 66-44 106-44h89Z" fill="url(#orange)" />
  <path d="M1324 1000 1468 856c19-19 45-30 72-30h60" fill="none" stroke="#ffffff" stroke-width="2" opacity="0.9" />

  <circle cx="0" cy="1000" r="440" fill="url(#ice)" opacity="0.8" />
  <circle cx="225" cy="914" r="34" fill="url(#orange)" opacity="0.92" />
  <circle cx="989" cy="1001" r="96" fill="url(#ice)" opacity="0.86" />

  <g fill="#0b3a68">
    <circle cx="11" cy="151" r="3" />
    <circle cx="34" cy="151" r="3" />
    <circle cx="11" cy="178" r="3" />
    <circle cx="34" cy="178" r="3" />
    <circle cx="11" cy="205" r="3" />
    <circle cx="34" cy="205" r="3" />
    <circle cx="11" cy="232" r="3" />
    <circle cx="34" cy="232" r="3" />
    <circle cx="11" cy="259" r="3" />
    <circle cx="34" cy="259" r="3" />
    <circle cx="276" cy="932" r="3" />
    <circle cx="299" cy="932" r="3" />
    <circle cx="322" cy="932" r="3" />
    <circle cx="276" cy="957" r="3" />
    <circle cx="299" cy="957" r="3" />
    <circle cx="322" cy="957" r="3" />
    <circle cx="276" cy="982" r="3" />
    <circle cx="299" cy="982" r="3" />
    <circle cx="322" cy="982" r="3" />
    <circle cx="1434" cy="206" r="3" />
    <circle cx="1434" cy="248" r="3" />
    <circle cx="1434" cy="290" r="3" />
  </g>

  <g fill="#9db7d4">
    <circle cx="1170" cy="19" r="3" />
    <circle cx="1194" cy="19" r="3" />
    <circle cx="1218" cy="19" r="3" />
    <circle cx="1242" cy="19" r="3" />
    <circle cx="1266" cy="19" r="3" />
    <circle cx="1290" cy="19" r="3" />
    <circle cx="1314" cy="19" r="3" />
    <circle cx="1170" cy="44" r="3" />
    <circle cx="1194" cy="44" r="3" />
    <circle cx="1218" cy="44" r="3" />
    <circle cx="1242" cy="44" r="3" />
    <circle cx="1266" cy="44" r="3" />
    <circle cx="1290" cy="44" r="3" />
    <circle cx="1314" cy="44" r="3" />
    <circle cx="1170" cy="69" r="3" />
    <circle cx="1194" cy="69" r="3" />
    <circle cx="1218" cy="69" r="3" />
    <circle cx="1242" cy="69" r="3" />
    <circle cx="1266" cy="69" r="3" />
    <circle cx="1290" cy="69" r="3" />
    <circle cx="1314" cy="69" r="3" />
  </g>

  <g fill="#f59a23">
    <circle cx="973" cy="815" r="3" />
    <circle cx="996" cy="815" r="3" />
    <circle cx="1019" cy="815" r="3" />
    <circle cx="1042" cy="815" r="3" />
    <circle cx="973" cy="838" r="3" />
    <circle cx="996" cy="838" r="3" />
    <circle cx="1019" cy="838" r="3" />
    <circle cx="1042" cy="838" r="3" />
    <circle cx="973" cy="861" r="3" />
    <circle cx="996" cy="861" r="3" />
    <circle cx="1019" cy="861" r="3" />
    <circle cx="1042" cy="861" r="3" />
  </g>

  <g fill="none" stroke="#8eabd0" stroke-width="3" opacity="0.95">
    <circle cx="127" cy="770" r="68" />
    <ellipse cx="127" cy="770" rx="68" ry="25" transform="rotate(-14 127 770)" />
    <ellipse cx="127" cy="770" rx="27" ry="68" transform="rotate(-28 127 770)" />
    <path d="M97 689 162 850M55 774h144M82 852h91M89 685l12 15M73 683c11-1 22 2 31 9M66 850c35 16 78 15 113-1" />
    <path d="M100 675c-13 4-19 14-13 28" />
  </g>

  <g fill="none" stroke="#8eabd0" stroke-width="3" opacity="0.95">
    <path d="M342 800 393 776l53 24-53 24Z" />
    <path d="M362 810v25c19 13 44 13 63 0v-25M446 800v46M446 846l-6 14h12Z" />
  </g>

  <g fill="none" stroke="#9cb8d8" stroke-width="3" opacity="0.95">
    <path d="M1288 154c24-15 49-15 65 0 20-17 45-18 67-4v67c-23-9-48-9-67 9-18-16-42-21-65-9Z" />
    <path d="M1353 154v72M1373 170h31M1373 188h29M1373 207h24M1298 172h34M1298 192h34" />
    <circle cx="1434" cy="207" r="22" fill="url(#orange)" stroke="none" />
  </g>

  <g fill="none" stroke="#0d3d70" stroke-width="3" opacity="0.95">
    <path d="M1392 781h158a11 11 0 0 1 0 22h-158a36 36 0 0 0 0 72h168" />
    <path d="M1415 730h136a10 10 0 0 1 0 20h-136a28 28 0 0 0 0 56h148" />
    <path d="M1418 805v67M1439 805v67M1418 805h21v30l-10-8-11 8Z" />
    <path d="M1392 764h169M1392 839h169M1415 750h139" />
  </g>

  <g filter="url(#softShadow)">
    <rect x="451" y="426" width="698" height="179" rx="22" fill="#ffffff" opacity="0.84" />
    <rect x="451" y="426" width="698" height="179" rx="22" fill="none" stroke="#ff6b00" stroke-width="5" />
    <text x="493" y="557" font-family="Inter, Arial, Helvetica, sans-serif" font-size="124" font-weight="800" letter-spacing="0">
      <tspan fill="#3e3f42">Oikos</tspan><tspan fill="#ff6b00">EDU</tspan>
    </text>
  </g>
</svg>
