<svg xmlns="http://www.w3.org/2000/svg" viewBox="0 0 1024 1024">
  <defs>
    <linearGradient id="churchRemoteBg" x1="0" y1="0" x2="1" y2="1">
      <stop offset="0" stop-color="#6f8d48"/>
      <stop offset="0.55" stop-color="#5f7d3f"/>
      <stop offset="1" stop-color="#75945a"/>
    </linearGradient>
    <filter id="remoteShadow" x="-20%" y="-20%" width="140%" height="140%">
      <feDropShadow dx="0" dy="8" stdDeviation="8" flood-color="#2f431f" flood-opacity="0.22"/>
    </filter>
  </defs>
  <rect x="26" y="26" width="972" height="972" rx="210" fill="url(#churchRemoteBg)"/>
  <g filter="url(#remoteShadow)" font-family="Arial Black, Arial, Helvetica, sans-serif" text-anchor="middle">
    <text x="512" y="322" fill="#ffffff" font-size="164" font-weight="900" letter-spacing="-9">Oikos</text>
    <text x="512" y="500" fill="#c7dc91" font-size="164" font-weight="900" letter-spacing="-7">Church</text>
  </g>
  <line x1="170" y1="545" x2="854" y2="545" stroke="#ffffff" stroke-width="8" stroke-linecap="round"/>
  <text x="512" y="638" fill="#ffffff" font-family="Arial Black, Arial, Helvetica, sans-serif" font-size="70" font-weight="900" letter-spacing="42" text-anchor="middle">REMOTE</text>
  <g fill="none" stroke="#c7dc91" stroke-linecap="round">
    <path d="M428 716c49-46 119-46 168 0" stroke-width="24"/>
    <path d="M456 752c32-29 80-29 112 0" stroke-width="20"/>
  </g>
  <g>
    <path d="M440 800c0-28 23-51 51-51h42c28 0 51 23 51 51v196H440V800Z" fill="#ffffff"/>
    <circle cx="512" cy="846" r="36" fill="none" stroke="#c7dc91" stroke-width="18"/>
    <g fill="#55743b">
      <circle cx="475" cy="920" r="12"/>
      <circle cx="512" cy="920" r="12"/>
      <circle cx="549" cy="920" r="12"/>
      <circle cx="475" cy="958" r="12"/>
      <circle cx="512" cy="958" r="12"/>
      <circle cx="549" cy="958" r="12"/>
    </g>
  </g>
</svg>
